#N canvas -1067 -221 1044 888 12;
#X obj 114 536 mtof;
#X obj 173 534 mtof;
#X obj 174 499 + 4;
#X obj 237 536 mtof;
#X obj 236 499 + 7;
#X obj 299 535 mtof;
#X obj 293 494 + 11;
#X msg 100 382 48;
#X msg 143 382 50;
#X msg 185 382 52;
#X msg 233 381 55;
#X msg 278 380 57;
#X obj 545 656 *~;
#X obj 570 730 hip~ 5;
#X obj 582 631 vline~;
#X obj 570 754 dac~;
#X obj 570 708 *~;
#X obj 647 305 bng 15 250 50 0 empty empty empty 17 7 0 10 -262144
-1 -1;
#X obj 701 676 vsl 30 64 0 1 0 0 empty empty empty 0 -9 0 10 -262144
-1 -1 400 1;
#X obj 580 546 pack f f f f;
#X obj 356 223 bng 15 250 50 0 empty empty empty 17 7 0 10 -262144
-1 -1;
#X obj 626 470 vsl 15 64 1 2000 0 0 empty empty empty 0 -9 0 10 -262144
-1 -1 800 1;
#X obj 649 470 vsl 15 64 0 1 0 0 empty empty empty 0 -9 0 10 -262144
-1 -1 0 1;
#X msg 580 568 1 \$2 \, \$4 \$3 \$2;
#X obj 598 469 vsl 15 64 1 2000 0 0 empty empty empty 0 -9 0 10 -262144
-1 -1 0 1;
#X text 777 528 A(\$2):Attack(time);
#X text 777 544 D(\$3):Decay(time);
#X text 603 450 A;
#X text 627 450 D;
#X text 650 450 S;
#X obj 745 467 vsl 15 64 1 2000 0 0 empty empty empty 0 -9 0 10 -262144
-1 -1 0 1;
#X text 743 444 R;
#X obj 702 541 pack f f;
#X obj 676 434 bng 15 250 50 0 empty empty empty 17 7 0 10 -262144
-1 -1;
#X msg 702 563 0 \$2;
#X text 777 574 R:Release(time);
#X text 777 559 S(\$4):Sustain(vol);
#X obj 217 627 osc~;
#X obj 291 591 osc~;
#X obj 148 641 osc~;
#X obj 106 659 osc~;
#X obj 337 108 metro;
#X obj 102 162 bng 15 250 50 0 empty empty empty 17 7 0 10 -262144
-1 -1;
#X obj 337 41 tgl 15 0 empty empty empty 17 7 0 10 -262144 -1 -1 1
1;
#X msg 666 86 tempo \$1 permin;
#X obj 104 230 f;
#X obj 150 230 + 1;
#X floatatom 659 56 5 0 0 0 - - -;
#X floatatom 104 268 5 0 0 0 - - -;
#X floatatom 206 249 5 0 0 0 - - -;
#X obj 207 282 select 0 1 2 3;
#X obj 205 225 % 4;
#X connect 0 0 40 0;
#X connect 1 0 39 0;
#X connect 2 0 1 0;
#X connect 3 0 37 0;
#X connect 4 0 3 0;
#X connect 5 0 38 0;
#X connect 6 0 5 0;
#X connect 7 0 0 0;
#X connect 7 0 2 0;
#X connect 7 0 4 0;
#X connect 7 0 6 0;
#X connect 8 0 0 0;
#X connect 8 0 2 0;
#X connect 8 0 4 0;
#X connect 8 0 6 0;
#X connect 9 0 0 0;
#X connect 9 0 2 0;
#X connect 9 0 4 0;
#X connect 9 0 6 0;
#X connect 10 0 0 0;
#X connect 10 0 2 0;
#X connect 10 0 4 0;
#X connect 10 0 6 0;
#X connect 11 0 0 0;
#X connect 11 0 2 0;
#X connect 11 0 4 0;
#X connect 11 0 6 0;
#X connect 12 0 16 0;
#X connect 13 0 15 0;
#X connect 13 0 15 1;
#X connect 14 0 12 1;
#X connect 16 0 13 0;
#X connect 17 0 33 0;
#X connect 18 0 16 1;
#X connect 19 0 23 0;
#X connect 20 0 19 0;
#X connect 21 0 19 2;
#X connect 22 0 19 3;
#X connect 23 0 14 0;
#X connect 24 0 19 1;
#X connect 30 0 32 1;
#X connect 32 0 34 0;
#X connect 33 0 32 0;
#X connect 34 0 14 0;
#X connect 37 0 12 0;
#X connect 38 0 12 0;
#X connect 39 0 12 0;
#X connect 40 0 12 0;
#X connect 41 0 42 0;
#X connect 41 0 20 0;
#X connect 42 0 45 0;
#X connect 43 0 41 0;
#X connect 44 0 41 0;
#X connect 45 0 46 0;
#X connect 45 0 48 0;
#X connect 46 0 45 1;
#X connect 47 0 44 0;
#X connect 48 0 51 0;
#X connect 49 0 50 0;
#X connect 50 0 7 0;
#X connect 50 1 8 0;
#X connect 50 2 9 0;
#X connect 50 3 10 0;
#X connect 51 0 49 0;
