#N canvas -858 -593 450 300 12;
#X obj 57 76 metro;
#X obj 57 105 bng 15 250 50 0 empty empty empty 17 7 0 10 -262144 -1
-1;
#X obj 26 27 tgl 15 0 empty empty empty 17 7 0 10 -262144 -1 -1 1 1
;
#X msg 113 47 tempo \$1 permin;
#X obj 58 144 f;
#X obj 104 144 + 1;
#X floatatom 113 16 5 0 0 0 - - -;
#X floatatom 58 182 5 0 0 0 - - -;
#X floatatom 160 163 5 0 0 0 - - -;
#X obj 160 188 select 0 1 2 3;
#X obj 159 139 % 4;
#X connect 0 0 1 0;
#X connect 1 0 4 0;
#X connect 2 0 0 0;
#X connect 3 0 0 0;
#X connect 4 0 5 0;
#X connect 4 0 7 0;
#X connect 5 0 4 1;
#X connect 6 0 3 0;
#X connect 7 0 10 0;
#X connect 8 0 9 0;
#X connect 10 0 8 0;
